<svg width="1254" height="1088" viewBox="0 0 1254 1088" fill="none" xmlns="http://www.w3.org/2000/svg">
<path d="M1118 0.5H1480.39L1348.46 363.641H1088.62C1027.74 363.641 973.357 401.791 952.535 459.107L884.521 646.328C870.745 684.251 898.774 724.36 939.058 724.36H1217.42L1085.5 1087.5H723.111L826.246 803.599C840.022 765.677 811.993 725.568 771.71 725.568H595.887C535.006 725.568 480.626 763.718 459.804 821.034L363.001 1087.5H0.612323L132.535 724.359H392.382C453.263 724.359 507.643 686.209 528.465 628.893L625.266 362.432H885.113C945.994 362.432 1000.37 324.282 1021.2 266.966L1118 0.5Z" stroke="#E5E5E5"/>
</svg>
