<svg width="661" height="720" viewBox="0 0 661 720" fill="none" xmlns="http://www.w3.org/2000/svg">
<rect width="661" height="720" fill="white"/>
<path fill-rule="evenodd" clip-rule="evenodd" d="M661 16C661 7.16345 653.837 0 645 0H346C337.163 0 330 7.16344 330 16V224C330 232.837 322.837 240 314 240H16C7.16345 240 0 247.163 0 256V464C0 472.837 7.16344 480 16 480H314C322.837 480 330 487.163 330 496V704C330 712.837 337.163 720 346 720H645C653.837 720 661 712.837 661 704V496C661 487.163 653.837 480 645 480H347C338.163 480 331 472.837 331 464V256C331 247.163 338.163 240 347 240H645C653.837 240 661 232.837 661 224V16Z" fill="black"/>
<path d="M330 0H661V240H492L330 200V0Z" fill="black"/>
<path d="M330 720L661 720L661 480L492 480L330 520L330 720Z" fill="black"/>
<path d="M331 423L249 480L0 480L2.09815e-05 240L169 240L331 280L331 423Z" fill="black"/>
</svg>
