<svg width="816" height="628" viewBox="0 0 816 628" fill="none" xmlns="http://www.w3.org/2000/svg">
<path opacity="0.06" d="M743.201 210.094L815.992 0.183935C816.023 0.0944702 815.96 0 815.869 0H615.892C615.838 0 615.789 0.0362866 615.77 0.0900908L562.399 153.996C550.965 186.965 521.107 208.909 487.679 208.909H344.407C344.352 208.909 344.303 208.946 344.284 208.999L290.914 362.902C279.481 395.872 249.622 417.816 216.194 417.816H72.9223C72.8675 417.816 72.8186 417.852 72.7995 417.906L0.00797793 627.816C-0.023018 627.905 0.040166 628 0.13077 628H200.108C200.162 628 200.211 627.964 200.23 627.91L253.601 474.004C265.035 441.035 294.893 419.091 328.321 419.091H425.196C447.199 419.091 462.511 442.042 454.985 463.744L398.089 627.816C398.058 627.905 398.122 628 398.212 628H598.189C598.244 628 598.293 627.964 598.312 627.91L671.103 418C671.134 417.911 671.071 417.816 670.981 417.816H517.401C495.398 417.816 480.086 394.865 487.612 373.163L525.086 265.098C536.519 232.128 566.378 210.184 599.806 210.184H743.078C743.133 210.184 743.181 210.147 743.201 210.094Z" fill="white"/>
</svg>
