<?xml version="1.0" encoding="UTF-8"?>
<svg xmlns="http://www.w3.org/2000/svg" id="Capa_1" data-name="Capa 1" width="371.68" height="371.28" viewBox="0 0 371.68 371.28">
  <defs>
    <style>.cls-1,.cls-2,.cls-3{fill:#0a0a0a;stroke:#0a0a0a;stroke-miterlimit:10;}.cls-1{stroke-width:5px;}.cls-2{stroke-width:4px;}</style>
  </defs>
  <line class="cls-1" x1="47.82" y1="46.38" x2="47.82" y2="324.32"></line>
  <line class="cls-1" x1="260.49" y1="4.13" x2="260.49" y2="367.43"></line>
  <line class="cls-1" x1="323.31" y1="46.38" x2="45.37" y2="46.38"></line>
  <line class="cls-2" x1="324.76" y1="44.5" x2="324.76" y2="322.44"></line>
  <line class="cls-2" x1="324.31" y1="323.44" x2="46.37" y2="323.44"></line>
  <path class="cls-3" d="M109.58,95.81h0c0-2.82-2-5.1-4.4-5.1s-4.39,2.28-4.39,5.1,2,5.09,4.39,5.09a4,4,0,0,0,2.37-.81A5.51,5.51,0,0,1,109.58,95.81Z" transform="translate(-57.99 -49.11)"></path>
  <path class="cls-3" d="M382.1,91.76a4.61,4.61,0,0,0-4.31,4.1h.37c3.68,0,5.43,3,5.24,5.85a5,5,0,0,0,3.09-4.84C386.49,94,384.52,91.76,382.1,91.76Z" transform="translate(-57.99 -49.11)"></path>
  <path class="cls-3" d="M381.17,377.15a4.62,4.62,0,0,1-4.31-4.09h.37c3.69,0,5.43-3,5.25-5.85a5,5,0,0,1,3.09,4.84C385.57,374.87,383.6,377.15,381.17,377.15Z" transform="translate(-57.99 -49.11)"></path>
  <path class="cls-3" d="M100.84,372.06a4.61,4.61,0,0,1,4.1-4.31v.37c0,3.68,3,5.43,5.86,5.24a5,5,0,0,1-4.84,3.1C103.12,376.46,100.84,374.49,100.84,372.06Z" transform="translate(-57.99 -49.11)"></path>
  <line class="cls-1" x1="110.61" y1="4.13" x2="110.61" y2="365.81"></line>
  <line class="cls-1" x1="2.06" y1="110.9" x2="368.63" y2="110.9"></line>
  <line class="cls-1" x1="2.06" y1="260.2" x2="368.63" y2="260.2"></line>
  <line class="cls-2" x1="5.47" y1="110.9" x2="5.47" y2="260.2"></line>
  <line class="cls-2" x1="366.83" y1="110.9" x2="366.83" y2="260.2"></line>
  <path class="cls-3" d="M318.43,419.89a4.63,4.63,0,0,1-4.31-4.1h.37c3.69,0,5.43-3,5.24-5.85a5,5,0,0,1,3.1,4.84C322.83,417.61,320.86,419.89,318.43,419.89Z" transform="translate(-57.99 -49.11)"></path>
  <path class="cls-3" d="M424.78,314.28a4.61,4.61,0,0,1-4.31-4.1h.37c3.68,0,5.43-3,5.24-5.86a5,5,0,0,1,3.09,4.84C429.17,312,427.21,314.28,424.78,314.28Z" transform="translate(-57.99 -49.11)"></path>
  <path class="cls-3" d="M163.63,414.27a4.61,4.61,0,0,1,4.1-4.31v.37c0,3.68,3,5.43,5.86,5.24a5,5,0,0,1-4.84,3.09C165.91,418.66,163.63,416.7,163.63,414.27Z" transform="translate(-57.99 -49.11)"></path>
  <path class="cls-3" d="M58.49,309.27A4.61,4.61,0,0,1,62.58,305v.37c0,3.68,3,5.43,5.85,5.24a5,5,0,0,1-4.84,3.09C60.77,313.66,58.49,311.69,58.49,309.27Z" transform="translate(-57.99 -49.11)"></path>
  <path class="cls-3" d="M63.5,155a4.63,4.63,0,0,1,4.31,4.1h-.37c-3.69,0-5.43,3-5.24,5.86a5,5,0,0,1-3.1-4.84C59.1,157.32,61.07,155,63.5,155Z" transform="translate(-57.99 -49.11)"></path>
  <path class="cls-3" d="M168.94,49.61a4.63,4.63,0,0,1,4.31,4.1h-.37c-3.68,0-5.43,3-5.24,5.86a5,5,0,0,1-3.1-4.84C164.54,51.89,166.51,49.61,168.94,49.61Z" transform="translate(-57.99 -49.11)"></path>
  <path class="cls-3" d="M424.71,155a4.61,4.61,0,0,0-4.31,4.1h.37c3.68,0,5.43,3,5.24,5.86a5,5,0,0,0,3.09-4.84C429.1,157.32,427.14,155,424.71,155Z" transform="translate(-57.99 -49.11)"></path>
  <path class="cls-3" d="M318.43,49.61a4.63,4.63,0,0,0-4.31,4.1h.37c3.69,0,5.43,3,5.24,5.86a5,5,0,0,0,3.1-4.84C322.83,51.89,320.86,49.61,318.43,49.61Z" transform="translate(-57.99 -49.11)"></path>
  <line class="cls-2" x1="261.33" y1="366.43" x2="110.61" y2="366.43"></line>
  <line class="cls-2" x1="259.7" y1="4.13" x2="108.98" y2="4.13"></line>
</svg>
