<?xml version="1.0" encoding="UTF-8"?>
<!DOCTYPE svg PUBLIC "-//W3C//DTD SVG 1.1//EN" "http://www.w3.org/Graphics/SVG/1.1/DTD/svg11.dtd">
<svg xmlns="http://www.w3.org/2000/svg" version="1.1" width="3840px" height="2160px" style="shape-rendering:geometricPrecision; text-rendering:geometricPrecision; image-rendering:optimizeQuality; fill-rule:evenodd; clip-rule:evenodd" xmlns:xlink="http://www.w3.org/1999/xlink">
<g><path style="opacity:0.998" fill="#000000" d="M 571.5,669.5 C 572.458,669.953 573.292,670.619 574,671.5C 731.5,944.5 889,1217.5 1046.5,1490.5C 730.167,1491.83 413.833,1491.83 97.5,1490.5C 255.764,1216.97 413.764,943.303 571.5,669.5 Z"/></g>
<g><path style="opacity:0.993" fill="#000000" d="M 1062.5,733.5 C 1107.41,733.17 1152.24,733.503 1197,734.5C 1270.63,862.296 1344.47,989.963 1418.5,1117.5C 1492.37,989.585 1566.37,861.752 1640.5,734C 1685.17,733.167 1729.84,733.333 1774.5,734.5C 1655.83,939.833 1537.17,1145.17 1418.5,1350.5C 1299.56,1144.94 1180.89,939.275 1062.5,733.5 Z"/></g>
<g><path style="opacity:0.992" fill="#000000" d="M 3627.5,733.5 C 3666.07,734.172 3704.74,734.839 3743.5,735.5C 3743.67,931.834 3743.5,1128.17 3743,1324.5C 3704.67,1324.83 3666.33,1325.17 3628,1325.5C 3626.83,1226.81 3626.33,1127.97 3626.5,1029C 3626.5,930.333 3626.83,831.833 3627.5,733.5 Z"/></g>
<g><path style="opacity:0.608" fill="#090909" d="M 3627.5,733.5 C 3666.51,732.839 3705.18,733.506 3743.5,735.5C 3704.74,734.839 3666.07,734.172 3627.5,733.5 Z"/></g>
<g><path style="opacity:0.992" fill="#000000" d="M 1909.5,874.5 C 1968.51,871.421 2023.18,885.588 2073.5,917C 2131.03,958.185 2162.53,1014.35 2168,1085.5C 2169.37,1107.65 2168.2,1129.65 2164.5,1151.5C 2044.83,1151.5 1925.17,1151.5 1805.5,1151.5C 1817.71,1183.21 1839.37,1206.04 1870.5,1220C 1908,1235.3 1946.33,1237.63 1985.5,1227C 2009.14,1219.44 2029.64,1206.94 2047,1189.5C 2080.23,1207.86 2113.06,1226.86 2145.5,1246.5C 2101.29,1296.95 2045.62,1326.45 1978.5,1335C 1905.44,1344.82 1837.78,1329.82 1775.5,1290C 1706.07,1238.94 1674.57,1170.11 1681,1083.5C 1689.37,998.524 1731.53,937.024 1807.5,899C 1840.1,884.515 1874.1,876.348 1909.5,874.5 Z M 1910.5,978.5 C 1947.5,975.249 1980.83,984.749 2010.5,1007C 2027.02,1021.53 2038.35,1039.37 2044.5,1060.5C 1964.5,1060.5 1884.5,1060.5 1804.5,1060.5C 1818.31,1018.2 1846.98,992.029 1890.5,982C 1897.29,980.703 1903.96,979.536 1910.5,978.5 Z"/></g>
<g><path style="opacity:0.992" fill="#000000" d="M 2796.5,874.5 C 2857.82,871.081 2914.16,886.248 2965.5,920C 2989.73,937.222 3009.39,958.555 3024.5,984C 2991.5,1003.17 2958.5,1022.33 2925.5,1041.5C 2905.74,1006.28 2875.74,985.78 2835.5,980C 2798.45,974.41 2764.12,981.743 2732.5,1002C 2706.02,1023.12 2690.52,1050.62 2686,1084.5C 2680.86,1120.47 2687.86,1153.8 2707,1184.5C 2728.84,1213.51 2758.01,1229.68 2794.5,1233C 2826.17,1237.26 2856.84,1230.93 2886.5,1214C 2902.87,1202.63 2916.04,1188.47 2926,1171.5C 2958.95,1190.28 2991.79,1209.28 3024.5,1228.5C 2989.64,1283.13 2940.31,1317.3 2876.5,1331C 2809.74,1345.32 2745.74,1337.65 2684.5,1308C 2618.18,1270.94 2580.01,1214.44 2570,1138.5C 2562.42,1078.07 2575.08,1022.4 2608,971.5C 2643.74,923.858 2690.9,893.692 2749.5,881C 2765.21,878.079 2780.88,875.913 2796.5,874.5 Z"/></g>
<g><path style="opacity:0.992" fill="#000000" d="M 3291.5,874.5 C 3341.12,872.193 3388.46,882.026 3433.5,904C 3504.96,944.012 3543.79,1005.18 3550,1087.5C 3551.24,1108.97 3550.07,1130.31 3546.5,1151.5C 3426.5,1151.33 3306.5,1151.5 3186.5,1152C 3204.02,1190.85 3233.36,1216.18 3274.5,1228C 3326.29,1241.37 3373.62,1232.37 3416.5,1201C 3420.38,1196.79 3424.55,1192.95 3429,1189.5C 3461.82,1208.32 3494.66,1227.15 3527.5,1246C 3490.86,1289.51 3444.52,1317.51 3388.5,1330C 3309.96,1347.44 3235.96,1336.1 3166.5,1296C 3087.51,1242.18 3053.34,1167.68 3064,1072.5C 3079.29,975.875 3133.79,913.375 3227.5,885C 3248.64,879.42 3269.98,875.92 3291.5,874.5 Z M 3292.5,978.5 C 3330.18,975.345 3363.84,985.178 3393.5,1008C 3408.73,1022.41 3419.73,1039.58 3426.5,1059.5C 3346.17,1060.67 3265.84,1060.83 3185.5,1060C 3204.22,1010.64 3239.89,983.468 3292.5,978.5 Z"/></g>
<g><path style="opacity:0.989" fill="#000000" d="M 2526.5,887.5 C 2527.21,888.404 2528.21,888.737 2529.5,888.5C 2529.83,929.906 2529.49,971.239 2528.5,1012.5C 2517.37,1009.42 2506.03,1007.42 2494.5,1006.5C 2490.17,1005.17 2485.83,1005.17 2481.5,1006.5C 2420.71,1010.94 2381.88,1042.27 2365,1100.5C 2363.48,1106.75 2362.48,1113.09 2362,1119.5C 2361.67,1187.83 2361.33,1256.17 2361,1324.5C 2322.67,1324.83 2284.33,1325.17 2246,1325.5C 2244.5,1179.64 2244,1033.64 2244.5,887.5C 2283.5,887.5 2322.5,887.5 2361.5,887.5C 2361.33,921.502 2361.5,955.502 2362,989.5C 2367.93,965.56 2380.43,945.727 2399.5,930C 2437.01,901.996 2479.34,887.829 2526.5,887.5 Z"/></g>
<g><path style="opacity:0.608" fill="#090909" d="M 2526.5,887.5 C 2527.83,887.5 2529.17,887.5 2530.5,887.5C 2531.16,929.513 2530.49,971.18 2528.5,1012.5C 2529.49,971.239 2529.83,929.906 2529.5,888.5C 2528.21,888.737 2527.21,888.404 2526.5,887.5 Z"/></g>
<g><path style="opacity:0.608" fill="#090909" d="M 2481.5,1006.5 C 2485.83,1005.17 2490.17,1005.17 2494.5,1006.5C 2489.96,1006.66 2485.62,1006.66 2481.5,1006.5 Z"/></g>
</svg>
